<svg width="315" height="24" viewBox="0 0 315 24" fill="none" xmlns="http://www.w3.org/2000/svg">
<path d="M0.735596 0.700317H1.09599L11.7441 13.1504L22.2939 0.700317H22.6544V23.2088H19.3452V11.6433C19.3452 10.3983 19.4763 8.43249 19.4763 8.43249C19.4763 8.43249 18.3951 10.1034 17.4777 11.1191L11.8752 17.8684H11.482L5.87945 11.1191C5.0276 10.1034 3.91365 8.43249 3.91365 8.43249C3.91365 8.43249 4.04471 10.3983 4.04471 11.6433V23.2088H0.735596V0.700317Z" fill="#1D1D1B"/>
<path d="M39.6585 16.1647L31.2056 0.929688H35.0389L40.0844 10.1035C40.7725 11.3485 41.4278 13.3143 41.4278 13.3143C41.4278 13.3143 42.1158 11.3485 42.7711 10.1035L47.6528 0.929688H51.224L43.1315 15.9681V23.2088H39.6585V16.1647Z" fill="#1D1D1B"/>
<path d="M71.5701 0.929688H75.043V20.1618H85.3307V23.2088H71.5701V0.929688Z" fill="#1D1D1B"/>
<path d="M94.4392 0.929688H97.8794V23.2088H94.4392V0.929688Z" fill="#1D1D1B"/>
<path d="M113.245 3.97669H106.627V0.929688H123.304V3.97669H116.685V23.2088H113.245V3.97669Z" fill="#1D1D1B"/>
<path d="M137.097 3.97669H130.479V0.929688H147.156V3.97669H140.537V23.2088H137.097V3.97669Z" fill="#1D1D1B"/>
<path d="M155.805 0.929688H159.278V20.1618H169.566V23.2088H155.805V0.929688Z" fill="#1D1D1B"/>
<path d="M178.543 0.929688H192.697V3.97669H182.016V12.6262H191.484V15.6077H182.016V20.1618H193.155V23.2088H178.543V0.929688Z" fill="#1D1D1B"/>
<path d="M214.515 0.929688H220.117C226.277 0.929688 229.684 4.2388 229.684 9.41542C229.684 14.592 226.244 17.9012 220.117 17.9012H217.988V23.2088H214.515V0.929688ZM219.986 14.8542C224.376 14.8542 226.146 12.7901 226.146 9.41542C226.146 6.04079 224.344 3.97669 219.986 3.97669H217.988V14.8542H219.986Z" fill="#1D1D1B"/>
<path d="M244.332 0.700317H244.725L254.489 23.2088H250.885L249.607 20.0635H239.417L238.14 23.2088H234.798L244.332 0.700317ZM248.362 17.1476L245.577 10.2017C245.02 8.89118 244.463 6.89261 244.463 6.89261C244.463 6.89261 243.939 8.89118 243.382 10.2017L240.597 17.1476H248.362Z" fill="#1D1D1B"/>
<path d="M278.471 23.2088H274.474L270.477 17.3442C269.855 17.4097 269.232 17.4752 268.61 17.4752H266.513V23.2088H263.04V0.929688H268.61C274.769 0.929688 278.209 4.14051 278.209 9.25161C278.209 12.6918 276.669 15.0507 273.753 16.3285L278.471 23.2088ZM268.479 14.4938C272.902 14.4938 274.671 12.5607 274.671 9.25161C274.671 5.9425 272.836 3.97669 268.479 3.97669H266.513V14.4938H268.479Z" fill="#1D1D1B"/>
<path d="M287.905 0.929688H291.345V23.2088H287.905V0.929688Z" fill="#1D1D1B"/>
<path d="M299.732 18.8841L302.583 17.3114C303.631 19.0479 304.975 20.424 307.694 20.424C309.955 20.424 311.56 19.2117 311.56 17.377C311.56 15.4439 310.25 14.5921 307.825 13.5109L306.351 12.8556C303.107 11.414 301.141 9.77584 301.141 6.33568C301.141 2.89552 303.697 0.667603 307.399 0.667603C310.348 0.667603 312.346 1.78156 313.69 4.17329L310.97 5.84423C310.118 4.36987 309.136 3.68184 307.399 3.68184C305.663 3.68184 304.516 4.76303 304.516 6.27015C304.516 7.94109 305.466 8.69465 307.727 9.67755L309.168 10.3328C312.969 12.0038 315 13.773 315 17.3442C315 21.243 311.953 23.5037 307.759 23.5037C303.566 23.5037 300.977 21.4069 299.732 18.8841Z" fill="#1D1D1B"/>
</svg>
